<?xml version="1.0" standalone="no"?>
<!DOCTYPE svg PUBLIC "-//W3C//DTD SVG 20010904//EN"
 "http://www.w3.org/TR/2001/REC-SVG-20010904/DTD/svg10.dtd">
<svg version="1.0" xmlns="http://www.w3.org/2000/svg"
 width="282.000000pt" height="29.000000pt" viewBox="0 0 282.000000 29.000000"
 preserveAspectRatio="xMidYMid meet">

<g transform="translate(0.000000,29.000000) scale(0.100000,-0.100000)"
fill="#000000" stroke="none">
<path d="M50 274 c-32 -13 -40 -38 -40 -123 0 -47 4 -91 8 -97 26 -39 142 -48
186 -13 25 19 26 25 26 108 0 115 -7 124 -96 128 -38 1 -76 0 -84 -3z m100
-124 l0 -60 -30 0 -30 0 0 60 0 60 30 0 30 0 0 -60z"/>
<path d="M280 149 l0 -130 38 3 37 3 5 59 5 60 28 -36 c15 -20 27 -48 27 -62
0 -23 4 -26 35 -26 l35 0 0 130 0 130 -35 0 c-34 0 -35 -1 -35 -40 0 -22 -4
-40 -8 -40 -5 0 -23 18 -41 40 -24 30 -39 40 -61 40 l-30 0 0 -131z"/>
<path d="M544 267 c-2 -7 -3 -65 -2 -128 l3 -114 95 0 95 0 0 30 c0 30 -1 30
-57 33 -42 2 -58 7 -58 17 0 9 14 15 43 17 37 3 42 6 45 30 3 25 0 27 -40 30
-59 4 -54 22 7 26 59 4 70 12 61 46 -6 26 -8 26 -97 26 -65 0 -91 -4 -95 -13z"/>
<path d="M780 149 l0 -130 38 3 37 3 5 65 c4 49 7 60 13 43 11 -29 41 -30 61
-2 14 21 15 18 18 -42 l3 -64 38 -3 37 -3 0 130 0 131 -40 0 c-36 0 -42 -4
-57 -35 -9 -19 -22 -35 -28 -35 -6 0 -19 16 -28 35 -15 31 -21 35 -57 35 l-40
0 0 -131z"/>
<path d="M1102 264 c-20 -14 -22 -23 -22 -113 0 -119 4 -124 101 -129 62 -4
70 -2 93 21 24 24 26 33 26 107 0 73 -3 83 -25 105 -20 21 -34 25 -87 25 -41
0 -71 -5 -86 -16z m118 -114 l0 -60 -30 0 -30 0 0 60 0 60 30 0 30 0 0 -60z"/>
<path d="M1344 267 c-2 -7 -3 -65 -2 -128 l3 -114 37 -3 c37 -3 37 -3 40 40 3
40 5 43 33 43 28 0 30 -3 33 -43 3 -43 3 -43 40 -40 l37 3 3 52 c2 41 -1 56
-16 71 -13 13 -17 24 -11 35 15 26 -1 78 -28 88 -38 14 -163 11 -169 -4z m124
-74 c-2 -10 -12 -18 -23 -18 -11 0 -21 8 -23 18 -3 13 3 17 23 17 20 0 26 -4
23 -17z"/>
<path d="M1612 153 l3 -128 93 -3 92 -3 0 36 0 35 -55 0 c-42 0 -55 3 -55 15
0 11 11 15 40 15 38 0 40 2 40 30 0 28 -2 30 -40 30 -29 0 -40 4 -40 15 0 12
13 15 55 15 l55 0 0 35 0 35 -95 0 -96 0 3 -127z"/>
<path d="M1845 268 c-3 -8 -4 -66 -3 -129 l3 -114 60 -3 c137 -7 155 8 155
127 0 119 -4 124 -119 129 -72 4 -92 2 -96 -10z m135 -118 l0 -60 -30 0 -30 0
0 60 0 60 30 0 30 0 0 -60z"/>
<path d="M2112 153 l3 -128 93 -3 92 -3 0 36 0 35 -55 0 c-42 0 -55 3 -55 15
0 11 11 15 40 15 38 0 40 2 40 30 0 28 -2 30 -40 30 -29 0 -40 4 -40 15 0 12
13 15 55 15 l55 0 0 35 0 35 -95 0 -96 0 3 -127z"/>
<path d="M2368 233 c-14 -32 -23 -75 -26 -131 l-4 -83 38 3 c34 3 39 6 42 31
3 22 8 27 32 27 24 0 29 -5 32 -27 3 -25 7 -28 38 -28 l35 0 3 60 c2 46 -3 75
-23 128 l-27 67 -59 0 -60 0 -21 -47z m96 -45 c9 -35 8 -38 -19 -38 -28 0 -28
0 -15 34 12 32 26 33 34 4z"/>
<path d="M2604 267 c-2 -7 -3 -65 -2 -128 l3 -114 103 -3 102 -3 0 71 0 71
-37 -3 c-35 -3 -38 -6 -41 -35 -3 -27 -7 -33 -28 -33 -24 0 -24 1 -24 95 l0
95 -35 0 c-20 0 -38 -6 -41 -13z"/>
</g>
</svg>
